<svg width="24" height="30" viewBox="0 0 24 30" fill="none" xmlns="http://www.w3.org/2000/svg">
<path d="M3.63644 6.74634L3.63635 6.74649C1.8586 9.81127 0.75 13.7015 0.75 16.9177C0.75 23.8076 5.67233 29.25 12 29.25C18.3277 29.25 23.25 23.8076 23.25 16.9177C23.25 13.7015 22.1414 9.81132 20.3607 6.74647C18.1397 2.9183 15.1783 0.75 12 0.75C8.82173 0.75 5.86031 2.91829 3.63644 6.74634ZM5.16315 7.65671L5.16335 7.65637C7.10216 4.31286 9.54142 2.54432 12 2.54432C14.4585 2.54432 16.8949 4.31276 18.8367 7.65651L18.8368 7.65654C20.4677 10.4639 21.4809 14.019 21.4809 16.9177C21.4809 22.8546 17.2961 27.4557 12 27.4557C6.70392 27.4557 2.51912 22.8546 2.51912 16.9177C2.51912 14.0189 3.52948 10.4639 5.16315 7.65671Z" fill="#0C356A" stroke="#0C356A" stroke-width="0.5"/>
<path d="M8.87846 10.1203C9.05684 10.8074 8.67036 11.5171 8.01363 11.7037C7.35689 11.8903 6.67853 11.486 6.50016 10.7989C6.32179 10.1119 6.70826 9.40218 7.365 9.21557C8.02173 9.02896 8.70009 9.43328 8.87846 10.1203ZM15.5296 7.98282C15.6945 8.67554 15.2891 9.37391 14.6296 9.54355C14.528 9.56978 14.4258 9.55422 14.3257 9.539C14.2208 9.52304 14.1184 9.50744 14.0215 9.54072C13.4729 9.72733 12.854 10.9516 12.7891 11.65C12.9189 11.8055 13.0216 11.9921 13.0756 12.207C13.1432 12.4699 13.1351 12.7329 13.0648 12.976C13.3945 13.4595 14.3594 13.9034 14.9891 13.9798C15.1539 13.796 15.3674 13.6546 15.6161 13.5839C16.3323 13.3804 17.0701 13.8214 17.2647 14.5707C17.4593 15.32 17.0377 16.0918 16.3215 16.2954C16.089 16.3605 15.8539 16.3576 15.6377 16.3011C15.0756 16.5555 14.4134 17.8533 14.4864 18.4612C14.6675 18.6337 14.808 18.8599 14.8756 19.1285C14.9161 19.2812 14.9269 19.4339 14.9188 19.5837C15.3161 20.1633 16.5296 20.7543 17.135 20.7401C17.1984 20.7401 17.2538 20.7049 17.3105 20.669C17.3527 20.6421 17.3957 20.6149 17.4431 20.6016C18.0998 20.415 18.7781 20.8193 18.9565 21.5064C19.1349 22.1934 18.7484 22.9031 18.0917 23.0897C17.4349 23.2763 16.7566 22.872 16.5782 22.1849C16.5543 22.093 16.5655 21.9979 16.5764 21.905C16.589 21.7979 16.6012 21.6935 16.5593 21.5997C16.3269 21.0879 15.2945 20.4376 14.635 20.3669C14.4621 20.5959 14.2242 20.7712 13.9351 20.8532C13.6243 20.9409 13.308 20.9069 13.0351 20.7797C12.6081 21.1416 12.1946 21.9531 12.0892 22.5355C12.2838 22.7108 12.4297 22.9483 12.5027 23.2254C12.6973 23.9747 12.2756 24.7466 11.5595 24.9501C11.2757 25.0321 10.9865 25.0095 10.7325 24.9077C10.3514 24.7777 10.0352 24.4553 9.92167 24.0199L9.91356 23.9775C9.91356 23.9734 9.91212 23.9708 9.91028 23.9674C9.90961 23.9662 9.90888 23.9649 9.90816 23.9634C9.86221 23.7909 9.8514 23.6156 9.87032 23.4488C9.57844 22.937 8.52712 22.3687 7.85417 22.3037C7.70282 22.4479 7.51634 22.5582 7.30554 22.6204C6.58935 22.8239 5.85153 22.3829 5.65695 21.6336C5.46236 20.8843 5.88396 20.1124 6.60016 19.9089C6.83529 19.841 7.07312 19.8467 7.29473 19.9089C7.74877 19.6035 8.27848 18.7129 8.39199 18.0767C8.192 17.8986 8.03795 17.6582 7.96498 17.3755C7.89741 17.1154 7.90552 16.8496 7.97309 16.6093C7.49472 16.0579 6.38665 15.484 5.81099 15.532C5.7602 15.5369 5.71379 15.5619 5.66677 15.5872C5.63123 15.6063 5.59534 15.6257 5.55695 15.6366C4.90021 15.8232 4.22186 15.4189 4.04348 14.7319C3.86511 14.0448 4.25159 13.3351 4.90832 13.1485C5.56506 12.9619 6.24341 13.3662 6.42179 14.0533C6.44945 14.158 6.43666 14.2647 6.42411 14.3696C6.41091 14.4798 6.39796 14.588 6.4326 14.6895C6.61637 15.2408 7.72715 15.8317 8.40551 15.9194C8.54874 15.795 8.71631 15.7017 8.90819 15.6479C9.13251 15.5829 9.35953 15.5829 9.57303 15.6366C10.0865 15.3313 10.7541 14.2229 10.8027 13.5359C10.6568 13.3747 10.546 13.174 10.4865 12.9421C10.2919 12.1928 10.7135 11.421 11.4297 11.2174C11.6378 11.158 11.8459 11.1552 12.0432 11.1976C12.6108 10.7791 13.2702 9.51245 13.2351 8.8678C13.232 8.81549 13.2095 8.76763 13.1864 8.71873C13.1684 8.6804 13.15 8.64143 13.1405 8.5992C12.9756 7.90931 13.381 7.20811 14.0405 7.03846C14.7026 6.86599 15.3701 7.2901 15.5323 7.97999L15.5296 7.98282ZM9.04332 18.3934C8.56766 18.8147 8.09741 19.7788 8.00552 20.4008C8.11362 20.545 8.1947 20.7118 8.24335 20.8985C8.3001 21.1162 8.30281 21.3367 8.26227 21.5431C8.65955 22.0379 9.67573 22.479 10.3054 22.5497C10.4568 22.4083 10.6406 22.298 10.8487 22.2387C11.0433 22.1821 11.2405 22.1764 11.427 22.2104C11.8811 21.7947 12.3756 20.955 12.5027 20.3358C12.4054 20.1973 12.327 20.0389 12.2811 19.8636C12.2135 19.6035 12.2216 19.3406 12.2892 19.0974C11.8973 18.563 10.8406 17.9382 10.2352 17.9608C10.0703 18.1446 9.85681 18.2859 9.60817 18.3594C9.41628 18.4132 9.2244 18.4216 9.04062 18.3905L9.04332 18.3934ZM10.3892 16.1993C10.3892 16.2247 10.3973 16.2502 10.4054 16.2756C10.4325 16.3237 10.4595 16.3746 10.4811 16.4255C10.5217 16.4905 10.5622 16.5555 10.5784 16.6291C10.6135 16.7761 10.6216 16.9259 10.6081 17.0673C10.8946 17.6667 12.1757 18.3453 12.8297 18.3312C12.9486 18.2463 13.081 18.1813 13.227 18.1389C13.2378 18.1361 13.2513 18.1332 13.2648 18.1304C13.2699 18.1304 13.2739 18.1282 13.2781 18.1259C13.2807 18.1245 13.2834 18.123 13.2864 18.1219C13.3053 18.1163 13.3243 18.1135 13.3432 18.1106C13.427 18.0937 13.5107 18.088 13.5945 18.088C13.5986 18.0866 13.6033 18.0845 13.608 18.0824C13.6128 18.0802 13.6175 18.0781 13.6216 18.0767C14.1567 17.7629 14.9134 16.5669 14.9539 15.8572C14.8269 15.7017 14.7269 15.5179 14.6729 15.3058C14.6269 15.1334 14.6161 14.9609 14.6323 14.7941C14.2053 14.2964 13.2026 13.7932 12.5486 13.7196C12.4243 13.8101 12.2838 13.8836 12.1297 13.926C11.9162 13.9883 11.7 13.9883 11.4973 13.943C10.9433 14.3671 10.3595 15.5773 10.3865 16.1908L10.3892 16.1993Z" fill="#0C356A"/>
<path d="M8.87846 10.1203C9.05684 10.8074 8.67036 11.5171 8.01363 11.7037C7.35689 11.8903 6.67853 11.486 6.50016 10.7989C6.32179 10.1119 6.70826 9.40218 7.365 9.21557C8.02173 9.02896 8.70009 9.43328 8.87846 10.1203ZM15.5296 7.98282C15.6945 8.67554 15.2891 9.37391 14.6296 9.54355C14.528 9.56978 14.4258 9.55422 14.3257 9.539C14.2208 9.52304 14.1184 9.50744 14.0215 9.54072C13.4729 9.72733 12.854 10.9516 12.7891 11.65C12.9189 11.8055 13.0216 11.9921 13.0756 12.207C13.1432 12.4699 13.1351 12.7329 13.0648 12.976C13.3945 13.4595 14.3594 13.9034 14.9891 13.9798C15.1539 13.796 15.3674 13.6546 15.6161 13.5839C16.3323 13.3804 17.0701 13.8214 17.2647 14.5707C17.4593 15.32 17.0377 16.0918 16.3215 16.2954C16.089 16.3605 15.8539 16.3576 15.6377 16.3011C15.0756 16.5555 14.4134 17.8533 14.4864 18.4612C14.6675 18.6337 14.808 18.8599 14.8756 19.1285C14.9161 19.2812 14.9269 19.4339 14.9188 19.5837C15.3161 20.1633 16.5296 20.7543 17.135 20.7401C17.1984 20.7401 17.2538 20.7049 17.3105 20.669C17.3527 20.6421 17.3957 20.6149 17.4431 20.6016C18.0998 20.415 18.7781 20.8193 18.9565 21.5064C19.1349 22.1934 18.7484 22.9031 18.0917 23.0897C17.4349 23.2763 16.7566 22.872 16.5782 22.1849C16.5543 22.093 16.5655 21.9979 16.5764 21.905C16.589 21.7979 16.6012 21.6935 16.5593 21.5997C16.3269 21.0879 15.2945 20.4376 14.635 20.3669C14.4621 20.5959 14.2242 20.7712 13.9351 20.8532C13.6243 20.9409 13.308 20.9069 13.0351 20.7797C12.6081 21.1416 12.1946 21.9531 12.0892 22.5355C12.2838 22.7108 12.4297 22.9483 12.5027 23.2254C12.6973 23.9747 12.2756 24.7466 11.5595 24.9501C11.2757 25.0321 10.9865 25.0095 10.7325 24.9077C10.3514 24.7777 10.0352 24.4553 9.92167 24.0199L9.91356 23.9775C9.91356 23.9734 9.91212 23.9708 9.91028 23.9674C9.90961 23.9662 9.90888 23.9649 9.90816 23.9634C9.86221 23.7909 9.8514 23.6156 9.87032 23.4488C9.57844 22.937 8.52712 22.3687 7.85417 22.3037C7.70282 22.4479 7.51634 22.5582 7.30554 22.6204C6.58935 22.8239 5.85153 22.3829 5.65695 21.6336C5.46236 20.8843 5.88396 20.1124 6.60016 19.9089C6.83529 19.841 7.07312 19.8467 7.29473 19.9089C7.74877 19.6035 8.27848 18.7129 8.39199 18.0767C8.192 17.8986 8.03795 17.6582 7.96498 17.3755C7.89741 17.1154 7.90552 16.8496 7.97309 16.6093C7.49472 16.0579 6.38665 15.484 5.81099 15.532C5.7602 15.5369 5.71379 15.5619 5.66677 15.5872C5.63123 15.6063 5.59534 15.6257 5.55695 15.6366C4.90021 15.8232 4.22186 15.4189 4.04348 14.7319C3.86511 14.0448 4.25159 13.3351 4.90832 13.1485C5.56506 12.9619 6.24341 13.3662 6.42179 14.0533C6.44945 14.158 6.43666 14.2647 6.42411 14.3696C6.41091 14.4798 6.39796 14.588 6.4326 14.6895C6.61637 15.2408 7.72715 15.8317 8.40551 15.9194C8.54874 15.795 8.71631 15.7017 8.90819 15.6479C9.13251 15.5829 9.35953 15.5829 9.57303 15.6366C10.0865 15.3313 10.7541 14.2229 10.8027 13.5359C10.6568 13.3747 10.546 13.174 10.4865 12.9421C10.2919 12.1928 10.7135 11.421 11.4297 11.2174C11.6378 11.158 11.8459 11.1552 12.0432 11.1976C12.6108 10.7791 13.2702 9.51245 13.2351 8.8678C13.232 8.81549 13.2095 8.76763 13.1864 8.71873C13.1684 8.6804 13.15 8.64143 13.1405 8.5992C12.9756 7.90931 13.381 7.20811 14.0405 7.03846C14.7026 6.86599 15.3701 7.2901 15.5323 7.97999L15.5296 7.98282ZM9.04332 18.3934C8.56766 18.8147 8.09741 19.7788 8.00552 20.4008C8.11362 20.545 8.1947 20.7118 8.24335 20.8985C8.3001 21.1162 8.30281 21.3367 8.26227 21.5431C8.65955 22.0379 9.67573 22.479 10.3054 22.5497C10.4568 22.4083 10.6406 22.298 10.8487 22.2387C11.0433 22.1821 11.2405 22.1764 11.427 22.2104C11.8811 21.7947 12.3756 20.955 12.5027 20.3358C12.4054 20.1973 12.327 20.0389 12.2811 19.8636C12.2135 19.6035 12.2216 19.3406 12.2892 19.0974C11.8973 18.563 10.8406 17.9382 10.2352 17.9608C10.0703 18.1446 9.85681 18.2859 9.60817 18.3594C9.41628 18.4132 9.2244 18.4216 9.04062 18.3905L9.04332 18.3934ZM10.3892 16.1993C10.3892 16.2247 10.3973 16.2502 10.4054 16.2756C10.4325 16.3237 10.4595 16.3746 10.4811 16.4255C10.5217 16.4905 10.5622 16.5555 10.5784 16.6291C10.6135 16.7761 10.6216 16.9259 10.6081 17.0673C10.8946 17.6667 12.1757 18.3453 12.8297 18.3312C12.9486 18.2463 13.081 18.1813 13.227 18.1389C13.2378 18.1361 13.2513 18.1332 13.2648 18.1304C13.2699 18.1304 13.2739 18.1282 13.2781 18.1259C13.2807 18.1245 13.2834 18.123 13.2864 18.1219C13.3053 18.1163 13.3243 18.1135 13.3432 18.1106C13.427 18.0937 13.5107 18.088 13.5945 18.088C13.5986 18.0866 13.6033 18.0845 13.608 18.0824C13.6128 18.0802 13.6175 18.0781 13.6216 18.0767C14.1567 17.7629 14.9134 16.5669 14.9539 15.8572C14.8269 15.7017 14.7269 15.5179 14.6729 15.3058C14.6269 15.1334 14.6161 14.9609 14.6323 14.7941C14.2053 14.2964 13.2026 13.7932 12.5486 13.7196C12.4243 13.8101 12.2838 13.8836 12.1297 13.926C11.9162 13.9883 11.7 13.9883 11.4973 13.943C10.9433 14.3671 10.3595 15.5773 10.3865 16.1908L10.3892 16.1993Z" stroke="#0C356A"/>
</svg>
